<svg xmlns="http://www.w3.org/2000/svg" viewBox="0 0 452.59 612.94"><defs><style>.cls-1{fill:none;}.cls-2,.cls-6{fill:#35a8e0;}.cls-2,.cls-8{fill-rule:evenodd;}.cls-3{fill:#39a935;}.cls-4{fill:#2e91d0;}.cls-5{fill:#a9c83d;}.cls-7{fill:#93c01f;}.cls-8{fill:#095f9c;}.cls-9{fill:#243571;}</style></defs><title>Asset 3</title><g id="Layer_2" data-name="Layer 2"><g id="_960" data-name="960"><path class="cls-1" d="M416.09,357.54h0l14-2.53Q423.1,356.26,416.09,357.54Z"/><path class="cls-1" d="M227.18,391c0,.06.12.09.16.16h0Z"/><path class="cls-2" d="M186.54,418.6c-29.37,19.12-58.61,38.45-88.08,57.42Q75.18,491,52,506.18q-11.19,7.33-22.44,14.61A200.31,200.31,0,0,0,58.2,560.5L224.84,393.86C212.06,402.1,199.27,410.3,186.54,418.6Z"/><path class="cls-2" d="M81.14,581.47a203.59,203.59,0,0,0,59.92,31.47V521.55Z"/><path class="cls-3" d="M227.4,391.3l0-.05s0,0,0-.05S227.4,391.26,227.4,391.3Z"/><path class="cls-3" d="M230.82,394,392.57,555.78a203.57,203.57,0,0,0,28.56-37.85l-.15-.15C403.93,506.65,255.23,412,230.82,394Z"/><path class="cls-3" d="M314.46,608.2a234.32,234.32,0,0,0,55-31.57l-55-55Z"/><path class="cls-3" d="M228.43,390.94l-.58.14h0l1.27,0C228.9,391,228.67,391,228.43,390.94Z"/><path class="cls-3" d="M227.34,391.1h0Z"/><path class="cls-4" d="M23.43,363.77c-6.8-1.1-13.64-1.95-20.5-2.74A279.92,279.92,0,0,0,0,393.92l29.31-29.31C27.35,364.32,25.38,364.09,23.43,363.77Z"/><path class="cls-4" d="M96.71,373.81C87.1,372.5,77.48,371.3,67.89,370L2.06,435.78a244.66,244.66,0,0,0,13.36,54.16L127.26,378.09C117.08,376.65,106.9,375.2,96.71,373.81Z"/><path class="cls-4" d="M98.46,476c29.47-19,58.71-38.3,88.08-57.42,12.73-8.3,25.52-16.5,38.3-24.74l2.56-2.56s0-.07,0-.1l-.08-.09c0-.07-.12-.1-.16-.16-6.15.69-12.08-1-18.1-1.64-8.72-.95-17.4-2.19-26.1-3.36-5.76-.78-11.51-1.6-17.26-2.42L29.19,520.07l.39.72Q40.8,513.48,52,506.18,75.18,491,98.46,476Z"/><path class="cls-5" d="M313.06,254.51l103,103q7-1.28,14-2.53l14-2.53,4.19-.75C434.69,281.39,392,226,355.68,185.92Q339.48,212,323.3,238.07,318.17,246.29,313.06,254.51Z"/><path class="cls-5" d="M270.33,323.21l51.39,51.4,57.19-10.34-82.69-82.69q-7.25,11.63-14.48,23.25Q276,314,270.33,323.21Z"/><path class="cls-5" d="M228.77,390.37l-.34.57c.24,0,.47.07.7.1.82,0,1.63-.05,1.81-.08,3.22-.56,25-4.47,53.58-9.64l-31-31q-8.77,14.13-17.55,28.27C233.53,382.49,231.17,386.44,228.77,390.37Z"/><path class="cls-6" d="M136.93,238c2.38,4,4.71,8,7.06,12l82.23-82.25,86.84,86.83q5.12-8.22,10.24-16.44,16.18-26.07,32.38-52.15l-1.47-1.6c-20.86-22.87-39.47-40.68-49-53.24-1.85-2.42-3.76-5-5.7-7.73-.56-.78-1.13-1.57-1.69-2.37-32-45-74.32-121-74.32-121S203.52,57.52,145,129.76c-.64.78-1.27,1.57-1.9,2.36-12.11,14.78-25.86,30.16-41.35,45.77,5.35,9.21,10.67,18.43,16.09,27.6C124.21,216.29,130.46,227.2,136.93,238Z"/><path class="cls-6" d="M185.61,319.72l40.61-40.61,44.11,44.1Q276,314,281.74,304.83q7.23-11.62,14.48-23.25l-70-70-65.87,65.88c.21.36.41.72.62,1.07C164.92,285,174.72,301.4,185.61,319.72Z"/><path class="cls-6" d="M227.34,391.1h0l.24,0,.15-.14.11.13.58-.14.34-.57c2.4-3.93,4.76-7.88,7.19-11.79q8.76-14.15,17.55-28.27L226.22,323,202,347.29c13.34,22.59,24.76,42.15,25.21,43.66Z"/><path class="cls-7" d="M430.12,355l-14,2.53,36.5,36.5a241.23,241.23,0,0,0-3.91-39.9c-.15-.81-.25-1.63-.4-2.41l-4.19.75Z"/><path class="cls-7" d="M227.34,391.11l.08.09s0,0,0,.05l.08-.09.06-.07-.24,0Z"/><path class="cls-7" d="M229.13,391l-1.27,0,3,3C255.23,412,403.93,506.65,421,517.78h0L284.69,381.49l-.17-.17c-28.59,5.17-50.36,9.08-53.58,9.64C230.76,391,230,391,229.13,391Z"/><path class="cls-7" d="M378.91,364.27l-57.19,10.34.17.15,113.6,113.6a246,246,0,0,0,14.22-53.29L379,364.34Z"/><path class="cls-8" d="M29.31,364.61,144,249.93c-2.35-4-4.68-8-7.06-12-6.47-10.77-12.72-21.68-19.11-32.48-5.42-9.17-10.74-18.39-16.09-27.6-.51.52-1,1-1.55,1.55-1.46,1.48-2.91,2.94-4.4,4.41C44.08,234.66,13.16,296.57,3.29,358.54c-.14.82-.23,1.66-.36,2.49,6.86.79,13.7,1.64,20.5,2.74C25.38,364.09,27.35,364.32,29.31,364.61Z"/><path class="cls-8" d="M209.08,389.31c6,.65,11.95,2.33,18.1,1.64-.45-1.51-11.87-21.07-25.21-43.66l-36.25,36.24c5.75.82,11.5,1.64,17.26,2.42C191.68,387.12,200.36,388.36,209.08,389.31Z"/><path class="cls-8" d="M127.26,378.09l58.35-58.37C174.72,301.4,164.92,285,161,278.54c-.21-.35-.41-.71-.62-1.07L67.89,370c9.59,1.35,19.21,2.55,28.82,3.86C106.9,375.2,117.08,376.65,127.26,378.09Z"/><rect class="cls-9" x="190.65" y="515.81" width="28.54" height="28.55"/><rect class="cls-9" x="235.64" y="515.81" width="28.55" height="28.55"/><rect class="cls-9" x="190.65" y="560.79" width="28.54" height="28.54"/><rect class="cls-9" x="235.64" y="560.79" width="28.55" height="28.54"/></g></g></svg>