<svg height='100px' width='100px'  fill="#000000" xmlns="http://www.w3.org/2000/svg" xmlns:xlink="http://www.w3.org/1999/xlink" version="1.1" x="0px" y="0px" viewBox="0 0 66 66" enable-background="new 0 0 66 66" xml:space="preserve"><g><g><rect x="28.9" y="49.4" width="8.5" height="16.1"></rect></g><g><rect x="25.5" y="17.1" width="4.1" height="3.8"></rect></g><g><rect x="25.5" y="7.2" width="4.1" height="3.8"></rect></g><g><rect x="36.6" y="36.9" width="4.1" height="3.8"></rect></g><g><rect x="25.5" y="27" width="4.1" height="3.8"></rect></g><g><rect x="36.6" y="27" width="4.1" height="3.8"></rect></g><g><rect x="36.6" y="17.1" width="4.1" height="3.8"></rect></g><g><rect x="36.6" y="7.2" width="4.1" height="3.8"></rect></g><g><path d="M19.3,1.5v64h7.6V48.4c0-0.6,0.4-1,1-1h10.5c0.6,0,1,0.4,1,1v17.1H47v-64c0-0.5-0.5-1-1-1H20.3C19.8,0.5,19.3,1,19.3,1.5z     M34.6,6.2c0-0.6,0.4-1,1-1h6.1c0.6,0,1,0.4,1,1V12c0,0.6-0.4,1-1,1h-6.1c-0.6,0-1-0.4-1-1V6.2z M34.6,16.1c0-0.6,0.4-1,1-1h6.1    c0.6,0,1,0.4,1,1v5.8c0,0.6-0.4,1-1,1h-6.1c-0.6,0-1-0.4-1-1V16.1z M34.6,26c0-0.6,0.4-1,1-1h6.1c0.6,0,1,0.4,1,1v5.8    c0,0.6-0.4,1-1,1h-6.1c-0.6,0-1-0.4-1-1V26z M34.6,35.9c0-0.6,0.4-1,1-1h6.1c0.6,0,1,0.4,1,1v5.8c0,0.6-0.4,1-1,1h-6.1    c-0.6,0-1-0.4-1-1V35.9z M23.5,6.2c0-0.6,0.4-1,1-1h6.1c0.6,0,1,0.4,1,1V12c0,0.6-0.4,1-1,1h-6.1c-0.6,0-1-0.4-1-1V6.2z     M23.5,16.1c0-0.6,0.4-1,1-1h6.1c0.6,0,1,0.4,1,1v5.8c0,0.6-0.4,1-1,1h-6.1c-0.6,0-1-0.4-1-1V16.1z M23.5,26c0-0.6,0.4-1,1-1h6.1    c0.6,0,1,0.4,1,1v5.8c0,0.6-0.4,1-1,1h-6.1c-0.6,0-1-0.4-1-1V26z M23.5,35.9c0-0.6,0.4-1,1-1h6.1c0.6,0,1,0.4,1,1v5.8    c0,0.6-0.4,1-1,1h-6.1c-0.6,0-1-0.4-1-1V35.9z"></path></g><g><rect x="25.5" y="36.9" width="4.1" height="3.8"></rect></g><g><rect x="52.7" y="16.6" width="4.9" height="4.5"></rect></g><g><rect x="52.7" y="27.6" width="4.9" height="4.5"></rect></g><g><rect x="52.7" y="49.6" width="4.9" height="4.5"></rect></g><g><rect x="52.7" y="38.6" width="4.9" height="4.5"></rect></g><g><path d="M61.5,64.5V11c0-0.5-0.4-1-1-1H49v55.5h11.5C61.1,65.5,61.5,65.1,61.5,64.5z M59.6,55.1c0,0.6-0.5,1-1,1h-6.9    c-0.5,0-1-0.4-1-1v-6.5c0-0.6,0.5-1,1-1h6.9c0.5,0,1,0.4,1,1V55.1z M59.6,44.1c0,0.6-0.5,1-1,1h-6.9c-0.5,0-1-0.4-1-1v-6.5    c0-0.6,0.5-1,1-1h6.9c0.5,0,1,0.4,1,1V44.1z M59.6,33.1c0,0.5-0.5,1-1,1h-6.9c-0.5,0-1-0.5-1-1v-6.5c0-0.6,0.5-1,1-1h6.9    c0.5,0,1,0.4,1,1V33.1z M59.6,22.1c0,0.6-0.5,1-1,1h-6.9c-0.5,0-1-0.4-1-1v-6.5c0-0.6,0.5-1,1-1h6.9c0.5,0,1,0.4,1,1V22.1z"></path></g><g><rect x="8.4" y="16.6" width="4.9" height="4.5"></rect></g><g><rect x="8.4" y="27.6" width="4.9" height="4.5"></rect></g><g><rect x="8.4" y="38.6" width="4.9" height="4.5"></rect></g><g><rect x="8.4" y="49.6" width="4.9" height="4.5"></rect></g><g><path d="M4.5,11v53.5c0,0.6,0.5,1,1,1H17V10H5.5C4.9,10,4.5,10.5,4.5,11z M6.4,15.6c0-0.6,0.4-1,1-1h6.9c0.6,0,1,0.4,1,1v6.5    c0,0.6-0.4,1-1,1H7.4c-0.6,0-1-0.4-1-1V15.6z M6.4,26.6c0-0.6,0.4-1,1-1h6.9c0.6,0,1,0.4,1,1v6.5c0,0.5-0.4,1-1,1H7.4    c-0.6,0-1-0.5-1-1V26.6z M6.4,37.6c0-0.6,0.4-1,1-1h6.9c0.6,0,1,0.4,1,1v6.5c0,0.6-0.4,1-1,1H7.4c-0.6,0-1-0.4-1-1V37.6z     M6.4,48.6c0-0.6,0.4-1,1-1h6.9c0.6,0,1,0.4,1,1v6.5c0,0.6-0.4,1-1,1H7.4c-0.6,0-1-0.4-1-1V48.6z"></path></g></g></svg>