<svg height='100px' width='100px'  fill="#000000" xmlns="http://www.w3.org/2000/svg" xmlns:xlink="http://www.w3.org/1999/xlink" version="1.1" x="0px" y="0px" viewBox="0 0 70 70" enable-background="new 0 0 70 70" xml:space="preserve"><g><path fill="#000000" d="M17.486,64.162C22.54,57.44,33.251,44.06,38.324,37.345l5.178-6.862l-3.121-2.593l-3.078-2.644l-5.9,6.252   C25.63,37.623,14.229,50.42,8.447,56.526c-1.456,1.536-2.181,3.494-2.047,5.507c0.226,3.384,2.649,5.409,5.998,5.068   C14.405,66.897,16.215,65.854,17.486,64.162z"></path><path fill="#000000" d="M69.601,24.758c-0.767-0.65-1.543-1.3-2.319-1.949c-0.865-0.725-1.73-1.46-2.585-2.186   c-0.295-0.254-0.578-0.342-0.962-0.313c-0.201,0.015-2.009,0.199-2.511,0.246l-0.155,0.012c-1.811,0.138-2.746-0.665-2.924-2.519   l-0.054-0.465c-0.05-0.41-0.089-0.812-0.102-1.225c-0.014-0.542-0.238-0.948-0.75-1.397c-2.621-2.285-5.715-4.994-8.796-7.777   c-1.304-1.18-2.79-2.097-4.545-2.792c-3.881-1.564-7.542-1.92-11.197-1.109c-1.806,0.398-3.493,1.069-5.099,2.032   c-0.877,0.526-0.526,1.89,0.496,1.904c1.963,0.027,3.745,0.371,5.44,1.032c3.935,1.541,6.377,4.87,6.526,8.897   c0.067,1.853-0.317,3.695-1.139,5.468c1.16,0.988,2.341,2.002,3.503,3c0.993,0.845,1.958,1.682,2.854,2.451   c1.028-1.118,1.269-1.338,1.47-1.482c1.259-0.868,2.752-1.074,4.015-0.553c0.409,0.171,0.814,0.426,1.198,0.755   c1.738,1.45,2.187,3.486,1.226,5.482c0.402,0.328,0.804,0.657,1.206,0.985c1.61,1.331,3.287,2.703,4.957,3.984   c0.244,0.184,0.445,0.288,0.573,0.279c0.064-0.005,0.263-0.057,0.641-0.398l7.294-8.502l1.916-2.39   C70.163,25.736,70.27,25.324,69.601,24.758z"></path><path fill="#000000" d="M4.38,19.902c0.033-0.022,0.062-0.05,0.085-0.085c0.006-0.009,0.011-0.017,0.017-0.026   c0.025-0.033,0.046-0.067,0.067-0.102c0.042-0.064,0.083-0.127,0.125-0.191c0.179-0.273,0.357-0.546,0.536-0.818   c0.243-0.371,0.486-0.741,0.728-1.112c0.262-0.4,0.524-0.8,0.786-1.2c0.236-0.361,0.472-0.721,0.708-1.082   c0.165-0.253,0.331-0.506,0.496-0.759c0.097-0.149,0.197-0.301,0.198-0.485c0.002-0.215-0.102-0.428-0.285-0.54   c-0.114-0.07-0.229-0.139-0.342-0.212l-3.537-2.272c-1.444-0.928-2.697-1.732-2.837-1.822L0.429,8.75   C0.227,8.621-0.037,8.765-0.04,9.006l-0.011,0.831c-0.003,0.218-0.01,0.425-0.017,0.623c-0.015,0.434-0.03,0.844,0.003,1.266   c0.273,3.446,1.25,6.137,2.902,8c0.037,0.042,0.074,0.083,0.113,0.126c0.005,0.005,0.01,0.008,0.015,0.013   c0.007,0.009,0.012,0.018,0.019,0.027c0.346,0.39,0.96,0.406,1.371,0.036C4.365,19.92,4.371,19.91,4.38,19.902z"></path><path fill="#000000" d="M29.227,29.444c-1.894,2.014-4.426,4.775-7.128,7.736c-2.293-3.031-4.845-5.822-8.145-7.766   c-2.153-1.256-4.546-1.954-7.038-2.103c-1.206-0.06-2.831-0.05-3.499-1.276c-0.479-0.847,0.608-1.745,1.037-2.393   c1.097-1.655,2.173-3.3,3.26-4.945c1.555-2.353,3.12-4.706,4.676-7.058C11.77,11.2,9.637,9.835,8.969,9.396   C7.244,8.289,5.46,7.123,3.955,5.737l-0.07-0.07C3.656,5.408,3.586,5.039,3.705,4.72c0.199-0.518,0.718-0.788,2.233-1.176   c0.798-0.209,1.645-0.379,1.844-0.409c1.625-0.189,3.19-0.219,4.666-0.06c2.423,0.269,5.822,1.146,8.285,3.918l0.1,0.13   c1.376,1.595,2.333,3.559,2.712,5.643c0.369,1.984-0.339,3.968-0.14,5.972c0.159,1.645,0.678,3.21,1.465,4.656   c1.186,2.193,2.861,4.028,4.556,5.842L29.227,29.444z"></path><path fill="#000000" d="M54.559,60.917c-0.668,3.808-3.778,6.261-7.736,6.081c-2.363-0.11-4.386-1.176-5.692-3.011   c-1.127-1.575-2.243-3.15-3.37-4.735c-2.014-2.841-4.028-5.673-6.041-8.514c2.891-3.689,5.762-7.357,7.936-10.199   c4.357,4.785,8.723,9.561,13.149,14.286C54.339,56.471,54.967,58.634,54.559,60.917z"></path></g></svg>