<svg height='100px' width='100px'  fill="#000000" xmlns="http://www.w3.org/2000/svg" xmlns:xlink="http://www.w3.org/1999/xlink" version="1.1" x="0px" y="0px" viewBox="0 0 66 66" enable-background="new 0 0 66 66" xml:space="preserve"><g><g><path d="M0.7,27.1c0.4,0.4,1,0.5,1.4,0.1L25.5,6.9C50.7,28.7,49.3,27.8,50,27.8c0.3,0,0.6-0.1,0.8-0.4c0.4-0.4,0.3-1-0.1-1.4    L26.2,4.8c-0.4-0.3-0.9-0.3-1.3,0l-24,20.8C0.4,26,0.4,26.7,0.7,27.1z"></path></g><g><rect x="51.3" y="41.9" width="5.5" height="9.6"></rect></g><g><path d="M45.5,61.4h16.1c0.5,0,1-0.5,1-1V36H45.5V61.4z M49.3,40.9c0-0.6,0.4-1,1-1h7.5c0.5,0,1,0.4,1,1v11.6c0,0.6-0.5,1-1,1    h-7.5c-0.6,0-1-0.4-1-1V40.9z"></path></g><g><path d="M9.4,10.5c-0.6,0-1,0.4-1,1v5l6.4-5.6c-0.2-0.3-0.5-0.4-0.8-0.4H9.4z"></path></g><g><rect x="31.4" y="30.2" width="5.5" height="5.5"></rect></g><g><circle cx="25.6" cy="15.8" r="1.5"></circle></g><g><rect x="14.2" y="30.2" width="5.5" height="5.5"></rect></g><g><path d="M5.6,26.8v33.6c0,0.5,0.5,1,1,1h10.6V48.9c0-4.6,3.7-8.3,8.3-8.3c4.6,0,8.3,3.7,8.3,8.3v12.5h9.6V33c0-0.5,0.4-1,1-1h1    v-5.1l-20-17.3L5.6,26.8z M21.7,36.8c0,0.6-0.5,1-1,1h-7.5c-0.6,0-1-0.4-1-1v-7.5c0-0.5,0.4-1,1-1h7.5c0.5,0,1,0.5,1,1V36.8z     M29.4,29.2c0-0.5,0.4-1,1-1h7.5c0.5,0,1,0.5,1,1v7.5c0,0.6-0.5,1-1,1h-7.5c-0.6,0-1-0.4-1-1V29.2z M29.1,15.8    c0,1.9-1.6,3.5-3.5,3.5c-1.9,0-3.5-1.6-3.5-3.5c0-1.9,1.6-3.5,3.5-3.5C27.5,12.3,29.1,13.9,29.1,15.8z"></path></g><g><path d="M31.9,48.9c0-3.5-2.8-6.3-6.3-6.3c-3.5,0-6.3,2.8-6.3,6.3v12.5h12.7V48.9z M30.2,53.4c-0.4,0.4-1.1,0.4-1.4,0    c-0.5-0.5-0.3-1.4,0.3-1.6c0.4-0.2,0.8-0.1,1.1,0.2C30.6,52.4,30.6,53,30.2,53.4z"></path></g><g><path d="M65.4,32.6l-5.9-16.8c-0.1-0.4-0.5-0.7-1-0.7h-5.1v-2.7c0-0.6-0.4-1-1-1c-0.6,0-1,0.4-1,1v2.7H41.2l5.1,4.4    c0.1,0.1,0.2,0.1,0.3,0.2c0,0,0.1,0.1,0.2,0.2c0,0,0,0,0,0l5.2,4.5c3,2.7-1.1,7.1-4,4.5l-0.5-0.5V34h17    C65.2,34,65.7,33.3,65.4,32.6z"></path></g></g></svg>