<svg xmlns="http://www.w3.org/2000/svg" viewBox="0 0 468.16 88.39"><defs><style>.cls-1{fill:#39a935;}.cls-2{fill:#a9c83d;}.cls-3{fill:#0a5f9c;}</style></defs><title>Asset 2</title><g id="Layer_2" data-name="Layer 2"><g id="_960" data-name="960"><path class="cls-1" d="M368.82,67.43c-8.16,1.21-8.95,2.2-9.91,12.45-1-10.25-1.75-11.24-9.92-12.45,8.17-1.21,8.95-2.19,9.92-12.44C359.87,65.24,360.66,66.22,368.82,67.43Z"/><path class="cls-2" d="M50.35,31.59C29.61,34.68,27.63,37.17,25.17,63.2,22.72,37.17,20.73,34.67,0,31.59,20.73,28.52,22.72,26,25.17,0,27.63,26,29.61,28.52,50.35,31.59Z"/><path class="cls-3" d="M468.16,68.94c-12.76,1.9-14,3.44-15.49,19.45-1.51-16-2.74-17.55-15.49-19.45,12.75-1.89,14-3.42,15.49-19.44C454.18,65.52,455.4,67.05,468.16,68.94Z"/></g></g></svg>