<svg xmlns="http://www.w3.org/2000/svg" viewBox="0 0 264.52 73.89"><defs><style>.cls-1{fill:#35a8e0;}.cls-2{fill:#a9c83d;}.cls-3{fill:#095f9c;}</style></defs><title>Asset 1</title><g id="Layer_2" data-name="Layer 2"><g id="_960" data-name="960"><path class="cls-1" d="M102.19,25.22c-16.55,2.46-18.14,4.45-20.1,25.22-2-20.77-3.55-22.77-20.09-25.22C78.54,22.76,80.13,20.77,82.09,0,84.05,20.77,85.64,22.76,102.19,25.22Z"/><path class="cls-2" d="M30.19,37.94c-12.44,1.85-13.63,3.35-15.1,19-1.47-15.6-2.66-17.1-15.09-19C12.43,36.1,13.62,34.6,15.09,19,16.56,34.6,17.75,36.1,30.19,37.94Z"/><path class="cls-3" d="M264.52,41.94c-21,3.12-23,5.64-25.45,32-2.48-26.31-4.49-28.84-25.45-31.95,21-3.11,23-5.63,25.45-31.94C241.55,36.31,243.56,38.83,264.52,41.94Z"/></g></g></svg>