<svg xmlns="http://www.w3.org/2000/svg" viewBox="0 0 405.76 64.51"><defs><style>.cls-1{fill:#243571;}.cls-2{fill:#0a5f9c;}</style></defs><title>Asset 6</title><g id="Layer_2" data-name="Layer 2"><g id="_960" data-name="960"><path class="cls-1" d="M92.07,30.51c-8.16,1.22-8.94,2.2-9.91,12.45-1-10.25-1.75-11.23-9.91-12.45,8.16-1.21,8.94-2.19,9.91-12.44C83.13,28.32,83.91,29.3,92.07,30.51Z"/><path class="cls-2" d="M45.32,28.44c-18.67,2.78-20.45,5-22.66,28.45C20.45,33.46,18.66,31.21,0,28.44c18.66-2.77,20.45-5,22.66-28.44C24.87,23.43,26.65,25.67,45.32,28.44Z"/><path class="cls-1" d="M405.76,43.51c-13.79,2-15.11,3.7-16.74,21-1.63-17.3-2.95-19-16.73-21,13.78-2,15.1-3.71,16.73-21C390.65,39.8,392,41.46,405.76,43.51Z"/></g></g></svg>